<?xml version="1.0" encoding="utf-8"?>
<!-- Generator: Adobe Illustrator 19.0.0, SVG Export Plug-In . SVG Version: 6.00 Build 0)  -->
<svg version="1.1" id="Layer_1" xmlns="http://www.w3.org/2000/svg" xmlns:xlink="http://www.w3.org/1999/xlink" x="0px" y="0px"
	 viewBox="0 0 233.7 352.8" style="enable-background:new 0 0 233.7 352.8;" xml:space="preserve">
<style type="text/css">
	.st0{display:none;fill:#FFFFFF;stroke:#000000;stroke-miterlimit:10;}
	.st1{display:none;fill:#FFFFFF;stroke:#FF0000;stroke-width:10;stroke-miterlimit:10;}
	.st2{fill:#333333;}
	.st3{fill:#FF6347;}
	.st4{display:none;}
</style>
<path id="XMLID_1_" class="st0" d="M0,342.8L0,10C0,4.5,4.5,0,10,0l213.7,0c5.5,0,10,4.5,10,10v332.8c0,5.5-4.5,10-10,10H10
	C4.5,352.8,0,348.3,0,342.8z"/>
<path id="XMLID_2_" class="st1" d="M5,338V14.8c0-5.5,4.5-10,10-10h203.7c5.5,0,10,4.5,10,10V338c0,5.5-4.5,10-10,10H15
	C9.5,348,5,343.6,5,338z"/>
<path id="XMLID_3_" class="st2" d="M10.1,333.2V19.9c0-5.5,4.5-10,10-10h193.6c5.5,0,10,4.5,10,10v313.3c0,5.5-4.5,10-10,10H20.1
	C14.5,343.2,10.1,338.7,10.1,333.2z"/>
<path id="XMLID_6_" class="st3" d="M116.9,343H20.1c-5.5,0-10-4.5-10-10V176.4h106.8V343z"/>
<path id="XMLID_4_" class="st3" d="M116.9,9.7h96.8c5.5,0,10,4.5,10,10v156.7H116.9V9.7z"/>
<rect id="XMLID_8_" x="71.9" y="131.4" class="st4" width="40" height="40"/>
<rect id="XMLID_10_" x="121.9" y="131.4" class="st4" width="40" height="40"/>
<rect id="XMLID_14_" x="71.9" y="181.2" class="st4" width="40" height="40"/>
<rect id="XMLID_12_" x="121.9" y="181.2" class="st4" width="40" height="40"/>
<path id="XMLID_9_" class="st3" d="M111.8,145.7c0-5.9-4.8-10.8-10.8-10.8c-3.9,0-7.3,2.1-9.2,5.1c-1.9-3.1-5.3-5.1-9.2-5.1
	c-5.9,0-10.8,4.8-10.8,10.8c0,3.6,1.7,6.7,4.4,8.7c0.1,0.3,0.3,0.5,0.5,0.7l13,13c1.1,1.1,2.9,1.1,4.1,0l13-13
	c0.2-0.2,0.4-0.4,0.5-0.7C110,152.5,111.8,149.3,111.8,145.7z"/>
<path id="XMLID_11_" class="st2" d="M102.1,194.6c-0.4,0-0.8,0-1.2,0.1c0.5-1.1,0.7-2.4,0.7-3.7c0-5.4-4.3-9.8-9.7-9.8
	s-9.7,4.4-9.7,9.8c0,1.3,0.3,2.6,0.7,3.7c-0.5-0.1-1-0.1-1.5-0.1c-5.3,0-9.7,4.4-9.7,9.8c0,5.4,4.3,9.8,9.6,9.8
	c2.8,0,5.4-1.2,7.1-3.2c0,0-1.9,5.5-2.8,5.5c-1.5,0-2.7,1.2-2.7,2.6s1.2,2.7,2.7,2.7l12.1,0c1.5,0,2.7-1.2,2.7-2.6s-1-2.6-2.4-2.6
	c-1,0-3.1-5.5-3.1-5.5c1.9,1.9,4.3,3.2,7.1,3.2c5.3,0,9.7-4.4,9.7-9.8C111.8,198.9,107.5,194.6,102.1,194.6z"/>
<path id="XMLID_7_" class="st2" d="M142,131.4c-5.3,0-20,17.5-20,22.8s4.3,9.6,9.6,9.6c2.8,0,5.4-1.2,7.1-3.1c0,0-1.8,5.4-2.8,5.4
	c-1.5,0-2.7,1.2-2.7,2.6s1.2,2.6,2.7,2.6l12,0c1.5,0,2.7-1.2,2.7-2.6s-1-2.6-2.4-2.6c-1,0-3.1-5.4-3.1-5.4c1.9,1.9,4.3,3.1,7.1,3.1
	c5.3,0,9.6-4.3,9.6-9.6S147.3,131.4,142,131.4z"/>
<path id="XMLID_13_" class="st3" d="M140.2,181.3l-16.3,18.3c-0.6,0.6-0.6,1.6,0,2.2l16.3,18.3c0.7,0.7,1.8,0.7,2.5,0l16.3-18.3
	c0.6-0.6,0.6-1.6,0-2.2l-16.3-18.3C142,180.6,140.9,180.6,140.2,181.3z"/>
</svg>
